<svg xmlns="http://www.w3.org/2000/svg" viewBox="0 0 1200 630" role="img" aria-label="Readout social preview">
  <rect width="1200" height="630" fill="#0F172A" />
  <path d="M0 470c155-72 295-91 420-57 154 42 270 31 418-79 118-88 238-126 362-114v410H0V470Z" fill="#0EA5E9" opacity=".18" />
  <path d="M0 512c162-68 305-78 431-30 146 56 276 42 410-56 121-89 240-126 359-111v315H0V512Z" fill="#38BDF8" opacity=".22" />
  <g transform="translate(96 90)">
    <rect width="96" height="96" rx="22" fill="#111827" stroke="#38BDF8" stroke-width="4" />
    <path d="M27 25h29c11 0 17 6 17 15 0 7-4 12-11 14l13 17H60L49 56H39v15H27V25Zm12 10v11h16c4 0 6-2 6-5.5S59 35 55 35H39Z" fill="#F8FAFC" />
    <path d="M27 79h42" stroke="#38BDF8" stroke-width="6" stroke-linecap="round" />
  </g>
  <text x="96" y="270" fill="#F8FAFC" font-family="Inter, ui-sans-serif, system-ui, -apple-system, BlinkMacSystemFont, Segoe UI, sans-serif" font-size="92" font-weight="700" letter-spacing="0">Readout</text>
  <text x="100" y="340" fill="#BAE6FD" font-family="Inter, ui-sans-serif, system-ui, -apple-system, BlinkMacSystemFont, Segoe UI, sans-serif" font-size="34" font-weight="500" letter-spacing="0">The news you follow, distilled into what matters.</text>
  <g transform="translate(100 420)" fill="none" stroke="#E0F2FE" stroke-width="3" opacity=".82">
    <path d="M0 0h360" />
    <path d="M0 42h260" />
    <path d="M0 84h310" />
  </g>
</svg>
